HIERARCHY
ROOT joint_Root
{
	OFFSET 0.0 0.0 0.0
	CHANNELS 6 Xposition Yposition Zposition Zrotation Xrotation Yrotation 
	JOINT Hips
	{
		OFFSET -0.726466 93.3139 -2.00062
		CHANNELS 6 Xposition Yposition Zposition Zrotation Xrotation Yrotation 
		JOINT Spine
		{
			OFFSET 15.7357 0.0 0.0
			CHANNELS 6 Xposition Yposition Zposition Zrotation Xrotation Yrotation 
			JOINT Chest
			{
				OFFSET 8.98455 -0.406207 0.0
				CHANNELS 6 Xposition Yposition Zposition Zrotation Xrotation Yrotation 
				JOINT Neck
				{
					OFFSET 16.3773 0.0 0.0
					CHANNELS 6 Xposition Yposition Zposition Zrotation Xrotation Yrotation 
					JOINT Head
					{
						OFFSET 6.45672 0.0 0.0
						CHANNELS 6 Xposition Yposition Zposition Zrotation Xrotation Yrotation 
						End Site
						{
							OFFSET 0.0 0.0 0.0
						}
					}
				}
				JOINT Shoulder_L
				{
					OFFSET 12.9942 -0.242716 4.98039
					CHANNELS 6 Xposition Yposition Zposition Zrotation Xrotation Yrotation 
					JOINT UpperArm_L
					{
						OFFSET 5.34809 0.0 0.0
						CHANNELS 6 Xposition Yposition Zposition Zrotation Xrotation Yrotation 
						JOINT LowerArm_L
						{
							OFFSET 24.3286 1.87007e-05 0.0
							CHANNELS 6 Xposition Yposition Zposition Zrotation Xrotation Yrotation 
							JOINT Hand_L
							{
								OFFSET 22.2916 0.0 0.0
								CHANNELS 6 Xposition Yposition Zposition Zrotation Xrotation Yrotation 
								End Site
								{
									OFFSET 0.0 0.0 0.0
								}
							}
						}
					}
				}
				JOINT Shoulder_R
				{
					OFFSET 12.9945 -0.242716 -4.98039
					CHANNELS 6 Xposition Yposition Zposition Zrotation Xrotation Yrotation 
					JOINT UpperArm_R
					{
						OFFSET -5.34813 0.0 0.0
						CHANNELS 6 Xposition Yposition Zposition Zrotation Xrotation Yrotation 
						JOINT LowerArm_R
						{
							OFFSET -24.3289 0.000322201 0.0
							CHANNELS 6 Xposition Yposition Zposition Zrotation Xrotation Yrotation 
							JOINT Hand_R
							{
								OFFSET -22.2915 -0.000108084 0.0
								CHANNELS 6 Xposition Yposition Zposition Zrotation Xrotation Yrotation 
								End Site
								{
									OFFSET 0.0 0.0 0.0
								}
							}
						}
					}
				}
			}
		}
		JOINT UpperLeg_L
		{
			OFFSET -2.19248 -6.46944 0.0
			CHANNELS 6 Xposition Yposition Zposition Zrotation Xrotation Yrotation 
			JOINT LowerLeg_L
			{
				OFFSET 39.0811 0.0 -1.23785e-05
				CHANNELS 6 Xposition Yposition Zposition Zrotation Xrotation Yrotation 
				JOINT Foot_L
				{
					OFFSET 40.9854 0.0 -1.26872e-05
					CHANNELS 6 Xposition Yposition Zposition Zrotation Xrotation Yrotation 
					JOINT Toes_L
					{
						OFFSET 11.7543 0.0 0.0
						CHANNELS 6 Xposition Yposition Zposition Zrotation Xrotation Yrotation 
						End Site
						{
							OFFSET 0.0 0.0 0.0
						}
					}
				}
			}
		}
		JOINT UpperLeg_R
		{
			OFFSET -2.19251 6.46944 0.0
			CHANNELS 6 Xposition Yposition Zposition Zrotation Xrotation Yrotation 
			JOINT LowerLeg_R
			{
				OFFSET -39.0811 -0.00228153 -0.0401928
				CHANNELS 6 Xposition Yposition Zposition Zrotation Xrotation Yrotation 
				JOINT Foot_R
				{
					OFFSET -40.9854 0.0 0.0
					CHANNELS 6 Xposition Yposition Zposition Zrotation Xrotation Yrotation 
					JOINT Toes_R
					{
						OFFSET -11.7543 0.0 0.0
						CHANNELS 6 Xposition Yposition Zposition Zrotation Xrotation Yrotation 
						End Site
						{
							OFFSET 0.0 0.0 0.0
						}
					}
				}
			}
		}
	}
}
MOTION
Frames:	9
Frame Time:	0.0333333
0.000000 0.000000 0.000000 0.000000 0.000000 -0.000000 0.434824 91.757800 0.968108 88.084800 -0.988579 4.580470 15.735700 0.000005 -0.000001 84.751300 84.880400 -84.363600 8.984550 -0.406207 -0.000000 2.433940 -0.953958 0.794848 16.377300 -0.000001 -0.000001 -0.417548 -3.087550 0.906485 6.456720 -0.000001 -0.000000 -3.704860 -1.690990 -2.113540 12.994200 -0.242716 4.980390 -90.275800 0.876840 -72.538800 5.348090 -0.000007 -0.000001 -51.550400 55.431700 -19.299200 24.328600 0.000019 0.000005 2.530640 3.156630 -38.753100 22.291600 -0.000001 0.000005 8.053360 5.662610 -16.366100 12.994500 -0.242716 -4.980390 88.006400 5.695900 -70.673300 -5.348130 -0.000001 -0.000004 -65.478500 33.300500 -13.141900 -24.328900 0.000322 -0.000009 -0.110464 -0.298446 -20.132600 -22.291500 -0.000108 -0.000004 6.714720 5.588680 -10.687600 -2.192480 -6.469440 -0.000000 -169.270000 -17.780100 -1.123580 39.081100 -0.000007 -0.000012 -0.214564 0.489979 23.649200 40.985400 -0.000006 -0.000013 -6.678970 -1.804860 -65.735600 11.754300 -0.000000 0.000003 -0.000151 -0.001460 -16.633000 -2.192510 6.469440 -0.000001 171.856000 22.214200 -178.040000 -39.081100 -0.002282 -0.040193 -0.036216 0.109229 19.898900 -40.985400 0.000008 0.000006 -4.627380 1.356500 -64.144400 -11.754300 -0.000006 -0.000006 -0.003262 -0.043533 -18.343600
0.000000 0.000000 0.000000 0.000000 0.000000 -0.000000 0.450955 91.761900 0.892383 88.063100 -1.044640 4.613280 15.735700 0.000005 -0.000001 85.058400 84.844900 -84.734300 8.984550 -0.406207 -0.000000 2.508660 -0.902260 0.667242 16.377300 -0.000001 -0.000001 -0.407695 -3.039490 0.839617 6.456720 -0.000001 -0.000000 -3.889400 -1.745480 -2.191310 12.994200 -0.242716 4.980390 -90.222000 0.699782 -72.395700 5.348090 -0.000007 -0.000001 -47.641400 57.751900 -20.999600 24.328600 0.000019 0.000005 2.292850 2.497020 -42.586300 22.291600 -0.000001 0.000005 8.376980 5.667790 -17.048400 12.994500 -0.242716 -4.980390 88.024300 5.625820 -70.613800 -5.348130 -0.000001 -0.000004 -64.914600 31.866200 -13.361700 -24.328900 0.000322 -0.000009 -0.121528 -0.330500 -20.027400 -22.291500 -0.000108 -0.000004 6.885490 5.589440 -10.730200 -2.192480 -6.469440 -0.000000 -169.249000 -17.786100 -1.125410 39.081100 -0.000007 -0.000012 -0.214932 0.490356 23.669000 40.985400 -0.000006 -0.000013 -6.669240 -1.823940 -65.720400 11.754300 -0.000000 0.000003 -0.000123 -0.001225 -16.624400 -2.192510 6.469440 -0.000001 171.892000 22.169000 -178.104000 -39.081100 -0.002282 -0.040193 -0.034023 0.102893 19.948300 -40.985400 0.000008 0.000006 -4.490040 1.388000 -64.116700 -11.754300 -0.000006 -0.000006 -0.003217 -0.043034 -18.323300
0.000000 0.000000 0.000000 0.000000 0.000000 -0.000000 0.480111 91.774800 0.795471 88.066400 -1.184290 4.650170 15.735700 0.000005 -0.000001 85.402400 84.790000 -85.164100 8.984550 -0.406207 -0.000000 2.622460 -0.845217 0.495445 16.377300 -0.000001 -0.000001 -0.500183 -2.951130 0.725888 6.456720 -0.000001 -0.000000 -3.935710 -1.758170 -2.131560 12.994200 -0.242716 4.980390 -90.125700 0.393750 -72.289500 5.348090 -0.000007 -0.000001 -43.508200 59.974300 -22.738300 24.328600 0.000019 0.000005 2.099620 1.963340 -46.941300 22.291600 -0.000001 0.000005 8.922090 5.673100 -17.891500 12.994500 -0.242716 -4.980390 88.029100 5.608120 -70.600500 -5.348130 -0.000001 -0.000004 -63.584500 30.565800 -14.216200 -24.328900 0.000322 -0.000009 -0.051597 -0.141745 -19.616300 -22.291500 -0.000108 -0.000004 6.881980 5.588320 -10.667200 -2.192480 -6.469440 -0.000000 -169.305000 -17.790000 -1.145600 39.081100 -0.000007 -0.000012 -0.212042 0.483673 23.672900 40.985400 -0.000006 -0.000013 -6.652420 -2.000540 -65.680400 11.754300 -0.000000 0.000003 -0.000132 -0.001299 -16.627100 -2.192510 6.469440 -0.000001 171.922000 22.024100 -178.188000 -39.081100 -0.002282 -0.040193 -0.029981 0.091662 19.966700 -40.985400 0.000008 0.000006 -4.385040 1.345570 -64.047000 -11.754300 -0.000006 -0.000006 -0.003282 -0.043754 -18.352600
0.000000 0.000000 0.000000 0.000000 0.000000 -0.000000 0.520460 91.774900 0.713846 88.063400 -1.329550 4.768550 15.735700 0.000005 -0.000001 85.354200 84.707300 -85.195300 8.984550 -0.406207 -0.000000 2.785990 -0.863466 0.338499 16.377300 -0.000001 -0.000001 -0.579493 -2.827020 0.644438 6.456720 -0.000001 -0.000000 -4.001350 -1.688540 -2.201960 12.994200 -0.242716 4.980390 -89.992800 -0.022375 -72.114400 5.348090 -0.000007 -0.000001 -39.521200 61.932200 -24.193800 24.328600 0.000019 0.000005 1.744670 1.373490 -51.807000 22.291600 -0.000001 0.000005 9.291400 5.677580 -18.845000 12.994500 -0.242716 -4.980390 88.045000 5.540100 -70.528200 -5.348130 -0.000001 -0.000004 -61.538700 29.091300 -15.737200 -24.328900 0.000322 -0.000009 0.207100 0.606937 -18.937200 -22.291500 -0.000108 -0.000004 6.652890 5.584650 -10.463900 -2.192480 -6.469440 -0.000000 -169.289000 -17.879300 -1.085640 39.081100 -0.000007 -0.000012 -0.212595 0.483387 23.740400 40.985400 -0.000006 -0.000013 -6.625580 -2.051090 -65.676200 11.754300 -0.000000 0.000003 -0.000118 -0.001188 -16.623000 -2.192510 6.469440 -0.000001 171.870000 21.998200 -178.172000 -39.081100 -0.002282 -0.040193 -0.032564 0.098565 20.005600 -40.985400 0.000008 0.000006 -4.439130 1.446400 -63.971500 -11.754300 -0.000006 -0.000006 -0.003250 -0.043396 -18.338000
0.000000 0.000000 0.000000 0.000000 0.000000 -0.000000 0.583754 91.786700 0.619997 88.036800 -1.612750 4.825830 15.735700 0.000005 -0.000001 85.454100 84.646900 -85.369000 8.984550 -0.406207 -0.000000 2.907370 -0.851340 0.191498 16.377300 -0.000001 -0.000001 -0.597241 -2.662790 0.538541 6.456720 -0.000001 -0.000000 -4.161090 -1.578120 -2.285700 12.994200 -0.242716 4.980390 -89.829600 -0.522465 -71.932800 5.348090 -0.000007 -0.000001 -35.725200 63.701400 -25.292600 24.328600 0.000019 0.000005 1.698270 1.097150 -57.140700 22.291600 -0.000001 0.000005 9.684900 5.680100 -19.617500 12.994500 -0.242716 -4.980390 88.114100 5.319140 -70.445800 -5.348130 -0.000001 -0.000004 -59.381000 26.664200 -17.610800 -24.328900 0.000322 -0.000009 0.412232 1.281550 -17.876500 -22.291500 -0.000108 -0.000004 6.404100 5.582870 -10.367000 -2.192480 -6.469440 -0.000000 -169.302000 -18.008200 -1.035460 39.081100 -0.000007 -0.000012 -0.209712 0.476283 23.764700 40.985400 -0.000006 -0.000013 -6.595220 -2.218110 -65.683900 11.754300 -0.000000 0.000003 -0.000108 -0.001100 -16.619700 -2.192510 6.469440 -0.000001 171.896000 21.815600 -178.237000 -39.081100 -0.002282 -0.040193 -0.027280 0.084121 19.990000 -40.985400 0.000008 0.000006 -4.300550 1.558660 -63.864200 -11.754300 -0.000006 -0.000006 -0.003208 -0.042928 -18.319000
0.000000 0.000000 0.000000 0.000000 0.000000 -0.000000 0.667857 91.797800 0.525539 88.025400 -1.892640 4.857790 15.735700 0.000005 -0.000001 85.494700 84.594600 -85.494600 8.984550 -0.406207 -0.000000 3.011680 -0.848342 0.022434 16.377300 -0.000001 -0.000001 -0.662676 -2.542160 0.518903 6.456720 -0.000001 -0.000000 -4.257230 -1.473100 -2.495860 12.994200 -0.242716 4.980390 -89.642000 -1.083310 -71.711000 5.348090 -0.000007 -0.000001 -32.000100 65.295900 -26.290100 24.328600 0.000019 0.000005 2.389240 1.241320 -62.554900 22.291600 -0.000001 0.000005 10.403200 5.681590 -20.406900 12.994500 -0.242716 -4.980390 88.227100 4.956300 -70.288700 -5.348130 -0.000001 -0.000004 -57.356500 23.148400 -19.543400 -24.328900 0.000322 -0.000009 0.412828 1.361540 -16.910100 -22.291500 -0.000108 -0.000004 6.100390 5.579240 -10.170700 -2.192480 -6.469440 -0.000000 -169.343000 -18.074600 -1.009090 39.081100 -0.000007 -0.000012 -0.209621 0.475864 23.774200 40.985400 -0.000006 -0.000013 -6.570850 -2.397120 -65.689900 11.754300 -0.000000 0.000003 -0.000138 -0.001354 -16.629100 -2.192510 6.469440 -0.000001 171.895000 21.689900 -178.331000 -39.081100 -0.002282 -0.040193 -0.024943 0.077738 19.980700 -40.985400 0.000008 0.000006 -4.181480 1.693550 -63.747000 -11.754300 -0.000006 -0.000006 -0.003402 -0.045068 -18.406100
0.000000 0.000000 0.000000 0.000000 0.000000 -0.000000 0.757881 91.817400 0.424108 88.027600 -2.171060 4.851630 15.735700 0.000005 -0.000001 85.748200 84.574700 -85.842400 8.984550 -0.406207 -0.000000 3.054320 -0.799766 -0.166867 16.377300 -0.000001 -0.000001 -0.684867 -2.407590 0.369246 6.456720 -0.000001 -0.000000 -4.355520 -1.462040 -2.606370 12.994200 -0.242716 4.980390 -89.424500 -1.724870 -71.546400 5.348090 -0.000007 -0.000001 -29.160200 66.517800 -26.541000 24.328600 0.000019 0.000005 4.043080 1.653860 -67.780000 22.291600 -0.000001 0.000005 10.643400 5.682020 -21.327800 12.994500 -0.242716 -4.980390 88.371300 4.496150 -70.063300 -5.348130 -0.000001 -0.000004 -55.532200 18.606300 -21.320000 -24.328900 0.000322 -0.000009 0.370834 1.275400 -16.258300 -22.291500 -0.000108 -0.000004 5.827470 5.574240 -9.907210 -2.192480 -6.469440 -0.000000 -169.420000 -18.262300 -1.021780 39.081100 -0.000007 -0.000012 -0.207910 0.472415 23.754600 40.985400 -0.000006 -0.000013 -6.519920 -2.576690 -65.658400 11.754300 -0.000000 0.000003 -0.000118 -0.001182 -16.622800 -2.192510 6.469440 -0.000001 171.889000 21.585900 -178.439000 -39.081100 -0.002282 -0.040193 -0.020373 0.065445 19.903000 -40.985400 0.000008 0.000006 -4.109900 1.840060 -63.582500 -11.754300 -0.000006 -0.000006 -0.003452 -0.045610 -18.428200
0.000000 0.000000 0.000000 0.000000 0.000000 -0.000000 0.857793 91.828100 0.310434 87.985400 -2.367240 4.759420 15.735700 0.000005 -0.000001 85.697000 84.581300 -85.866100 8.984550 -0.406207 -0.000000 3.039820 -0.805327 -0.316570 16.377300 -0.000001 -0.000001 -0.728519 -2.291550 0.258750 6.456720 -0.000001 -0.000000 -4.424030 -1.379480 -2.882560 12.994200 -0.242716 4.980390 -89.204100 -2.364650 -71.390800 5.348090 -0.000007 -0.000001 -27.221800 67.538300 -26.084400 24.328600 0.000019 0.000005 6.630080 2.082280 -72.634900 22.291600 -0.000001 0.000005 10.741400 5.680530 -22.440100 12.994500 -0.242716 -4.980390 88.579900 3.860200 -69.783800 -5.348130 -0.000001 -0.000004 -53.817900 13.631300 -23.193600 -24.328900 0.000322 -0.000009 0.406097 1.439160 -15.797500 -22.291500 -0.000108 -0.000004 5.952750 5.571660 -9.773390 -2.192480 -6.469440 -0.000000 -169.497000 -18.321800 -1.194700 39.081100 -0.000007 -0.000012 -0.205755 0.465893 23.828200 40.985400 -0.000006 -0.000013 -6.453380 -2.671100 -65.671800 11.754300 -0.000000 0.000003 -0.000145 -0.001412 -16.631300 -2.192510 6.469440 -0.000001 171.960000 21.548600 -178.665000 -39.081100 -0.002282 -0.040193 -0.017129 0.056544 19.883900 -40.985400 0.000008 0.000006 -3.966450 1.946540 -63.446600 -11.754300 -0.000006 -0.000006 -0.003504 -0.046179 -18.451300
0.000000 0.000000 0.000000 0.000000 0.000000 -0.000000 0.970707 91.862000 0.192096 88.036300 -2.542210 4.681260 15.735700 0.000005 -0.000001 86.054800 84.582700 -86.351700 8.984550 -0.406207 -0.000000 3.041360 -0.732450 -0.573690 16.377300 -0.000001 -0.000001 -0.846348 -2.202660 0.134781 6.456720 -0.000001 -0.000000 -4.481320 -1.381750 -3.066580 12.994200 -0.242716 4.980390 -88.977500 -3.017840 -71.273400 5.348090 -0.000007 -0.000001 -26.347800 68.357800 -24.854000 24.328600 0.000019 0.000005 9.617430 2.211110 -77.169000 22.291600 -0.000001 0.000005 10.802600 5.677670 -23.372900 12.994500 -0.242716 -4.980390 88.777400 3.264200 -69.453500 -5.348130 -0.000001 -0.000004 -52.058600 8.447800 -25.003100 -24.328900 0.000322 -0.000009 0.247930 0.893325 -15.574500 -22.291500 -0.000108 -0.000004 6.223760 5.568070 -9.589950 -2.192480 -6.469440 -0.000000 -169.660000 -18.549400 -1.262530 39.081100 -0.000007 -0.000012 -0.200461 0.456643 23.701200 40.985400 -0.000006 -0.000013 -6.346820 -2.715470 -65.560600 11.754300 -0.000000 0.000003 -0.000123 -0.001229 -16.624500 -2.192510 6.469440 -0.000001 171.933000 21.469600 -178.812000 -39.081100 -0.002282 -0.040193 -0.010322 0.038033 19.734800 -40.985400 0.000008 0.000006 -3.861550 2.031540 -63.250600 -11.754300 -0.000006 -0.000006 -0.003434 -0.045419 -18.420400
